<?xml version="1.0" encoding="UTF-8" standalone="no"?>
<!-- Created with Inkscape (http://www.inkscape.org/) -->

<svg
   xmlns:dc="http://purl.org/dc/elements/1.1/"
   xmlns:cc="http://creativecommons.org/ns#"
   xmlns:rdf="http://www.w3.org/1999/02/22-rdf-syntax-ns#"
   xmlns:svg="http://www.w3.org/2000/svg"
   xmlns="http://www.w3.org/2000/svg"
   xmlns:sodipodi="http://sodipodi.sourceforge.net/DTD/sodipodi-0.dtd"
   xmlns:inkscape="http://www.inkscape.org/namespaces/inkscape"
   height="67.971733mm"
   width="91.880699mm"
   viewBox="0 0 91.880699 67.971733"
   version="1.1"
   id="svg3873"
   inkscape:version="0.92.0 unknown"
   sodipodi:docname="findr-logo.svg">
  <defs
     id="defs3877">
    <clipPath
       clipPathUnits="userSpaceOnUse"
       id="clipPath3959">
      <g
         inkscape:label="Clip"
         id="use3961">
        <path
           id="path3967"
           style="font-style:normal;font-variant:normal;font-weight:normal;font-stretch:normal;font-size:70.55555725px;line-height:6.61458302px;font-family:Marigold;-inkscape-font-specification:'Marigold, Normal';font-variant-ligatures:normal;font-variant-caps:normal;font-variant-numeric:normal;font-feature-settings:normal;text-align:start;letter-spacing:0px;word-spacing:0px;writing-mode:lr-tb;text-anchor:start;fill:#000000;fill-opacity:1;stroke:none;stroke-width:0.26458332px;stroke-linecap:butt;stroke-linejoin:miter;stroke-opacity:1"
           d="m 9.3677427,10.390781 0.03445,0.172255 q -0.0689,0.482313 -0.206706,0.999078 -0.7234701,2.239312 -1.5158421,5.82221 l -0.999078,5.064291 q -0.37896,2.067057 -0.72347,4.71978 -0.310058,2.239314 -0.447862,4.099665 -0.0689,0.447863 -0.03445,0.964626 -0.03445,3.031683 1.688097,3.100586 0.585666,0.03445 1.240234,-0.344509 l 1.3091371,-0.723471 0.3445093,-0.103352 0.275608,0.103352 0.241156,0.413411 0.103353,0.206706 q 0,0.447863 -0.9301763,0.792374 l -3.8929581,1.619192 q -0.72347,0.275609 -1.8259,0.930177 -1.102431,0.68902 -1.825901,0.68902 -0.826823,0.0689 -0.861274,-0.964626 0,-0.378962 0.137804,-0.999079 l 0.275608,-1.791449 0.585666,-3.513998 0.792372,-5.443251 q 1.06798,-7.889269 1.102431,-11.093208 0.0689,-2.377115 -0.999078,-2.514919 l -0.34451,-0.03445 -1.205783,0.03445 -0.206706,-0.0689 q -0.172255,-0.103353 -0.137804,-0.344509 l 0.03445,-0.34451 0.103353,-0.275607 0.378961,-0.103353 0.930175,0.103353 1.102431,0.0689 q 0.895725,0 1.136882,-0.0689 L 9.1265846,10.28743 Z M 3.2354726,8.013664 q 0,-0.344509 1.515842,-2.5493707 L 6.5083136,2.81157 q 0.275607,-0.378961 0.72347,-0.757921 0.757921,-0.516765 1.44694,-0.585666 1.3780384,0.0689 1.3780384,1.6191941 -0.0689,0.826823 -0.8268233,1.3780392 L 8.5064686,4.9475292 7.6107436,5.5676461 6.6805676,6.1533133 3.8900406,8.2548211 3.5455306,8.427076 Z"
           inkscape:connector-curvature="0" />
      </g>
    </clipPath>
    <clipPath
       clipPathUnits="userSpaceOnUse"
       id="clipPath4046">
      <rect
         style="opacity:1;fill:#ffffff;fill-opacity:1;fill-rule:nonzero;stroke:#ffffff;stroke-width:0.02645835;stroke-miterlimit:4;stroke-dasharray:none;stroke-opacity:1"
         id="rect4048"
         width="8.0052357"
         height="8.4549694"
         x="22.069614"
         y="5.5383625"
         rx="1.6358657"
         ry="1.6358658" />
    </clipPath>
  </defs>
  <sodipodi:namedview
     pagecolor="#ffffff"
     bordercolor="#666666"
     borderopacity="1"
     objecttolerance="10"
     gridtolerance="10"
     guidetolerance="10"
     inkscape:pageopacity="0"
     inkscape:pageshadow="2"
     inkscape:window-width="1366"
     inkscape:window-height="719"
     id="namedview3875"
     showgrid="false"
     inkscape:zoom="1.04"
     inkscape:cx="235.19433"
     inkscape:cy="72.361654"
     inkscape:window-x="0"
     inkscape:window-y="25"
     inkscape:window-maximized="1"
     inkscape:current-layer="layer1" />
  <metadata
     id="metadata3871">
    <rdf:RDF>
      <cc:Work
         rdf:about="">
        <dc:format>image/svg+xml</dc:format>
        <dc:type
           rdf:resource="http://purl.org/dc/dcmitype/StillImage" />
        <dc:title></dc:title>
      </cc:Work>
    </rdf:RDF>
  </metadata>
  <g
     inkscape:groupmode="layer"
     id="layer1"
     inkscape:label="Layer 1"
     style="display:inline"
     sodipodi:insensitive="true">
    <g
       aria-label="findr"
       style="font-style:normal;font-variant:normal;font-weight:normal;font-stretch:normal;font-size:70.55555725px;line-height:6.61458302px;font-family:Marigold;-inkscape-font-specification:'Marigold, Normal';font-variant-ligatures:normal;font-variant-caps:normal;font-variant-numeric:normal;font-feature-settings:normal;text-align:start;letter-spacing:0px;word-spacing:0px;writing-mode:lr-tb;text-anchor:start;fill:#000000;fill-opacity:1;stroke:none;stroke-width:0.26458332px;stroke-linecap:butt;stroke-linejoin:miter;stroke-opacity:1"
       id="text3926"
       transform="translate(-0.08629202,0.21507498)">
      <path
         inkscape:connector-curvature="0"
         d="m 9.4395622,21.841906 q 2.6871748,-1.756998 3.3072918,-3.445095 0.551215,-1.515842 1.171332,-4.754232 0.68902,-3.7896051 1.378039,-5.443251 Q 16.088597,6.3734274 18.500164,3.548449 21.428495,0.03445153 23.943415,5.7369471e-7 25.424806,0.06890249 25.59706,0.89572542 l 0.0689,0.68901908 Q 25.631511,3.5829 23.77116,4.30637 23.185493,4.5130758 22.806533,4.5475267 l -3.376194,0.2756077 q -1.515842,0.034451 -2.067057,6.5456816 l -0.482313,5.270996 -0.241157,2.480469 -0.03445,0.72347 0.861274,0.172255 q 0.37896,0.103353 0.930176,0.103353 l 1.688096,0.0689 1.653646,0.0689 q 0.378961,0.03445 0.585667,0.172254 l 0.137803,0.378961 -0.137803,0.275607 q -0.137804,0.103353 -0.378961,0.137804 l -1.550293,0.275608 -2.17041,0.37896 q -0.689019,0.137804 -1.998156,0.482314 l -0.310058,2.583821 -0.206706,1.653646 -0.172255,1.619195 -0.241156,2.032607 -0.482314,4.444173 q -0.206705,1.550293 -0.620117,4.168566 l -0.344509,2.204861 q -0.241157,1.791449 -0.310059,2.032606 l -0.378961,1.619195 -0.654568,3.513998 q -0.895725,4.650879 -2.6182724,8.922797 L 8.9916998,59.221193 Q 6.8901915,63.803171 4.6508793,66.31809 L 3.6862526,67.144913 Q 2.7560768,67.833932 2.3771163,67.833932 L 0.75792135,67.971736 0.13780414,67.902834 3.2037497e-7,67.420521 q 0,-0.34451 0.13780381962503,-0.792372 l 0.27560765,-1.06798 Q 0.4823137,65.181209 0.7923723,64.423288 L 1.2057838,63.320857 Q 1.3780385,62.907446 1.5502933,62.735191 1.6880971,62.597387 2.0326067,62.562936 L 4.0652131,62.252878 Q 6.4078781,61.908368 7.4758577,59.46235 7.8892692,58.566625 8.1993278,57.395293 8.5782883,55.913902 9.0606017,53.70904 9.577366,51.331925 9.8529736,49.36822 l 0.6890194,-5.512153 0.37896,-3.61735 0.172255,-1.998156 q 0.275608,-3.513997 0.620117,-6.545681 l 0.378961,-3.617351 0.137804,-1.481391 0.103352,-1.205783 q 0.03445,-0.964627 0.275608,-3.031684 z"
         style="font-style:normal;font-variant:normal;font-weight:normal;font-stretch:normal;font-size:70.55555725px;font-family:Marigold;-inkscape-font-specification:'Marigold, Normal';font-variant-ligatures:normal;font-variant-caps:normal;font-variant-numeric:normal;font-feature-settings:normal;text-align:start;writing-mode:lr-tb;text-anchor:start;stroke-width:0.26458332px"
         id="path3928" />
      <path
         inkscape:connector-curvature="0"
         d="m 29.55892,19.051379 0.03445,0.172255 q -0.0689,0.482313 -0.206706,0.999078 -0.72347,2.239312 -1.515842,5.822211 l -0.999078,5.064291 q -0.37896,2.067057 -0.72347,4.71978 -0.310058,2.239313 -0.447862,4.099664 -0.0689,0.447863 -0.03445,0.964627 -0.03445,3.031684 1.688097,3.100586 0.585666,0.03445 1.240234,-0.34451 l 1.309137,-0.72347 0.344509,-0.103353 0.275608,0.103353 0.241156,0.413412 0.103353,0.206706 q 0,0.447862 -0.930176,0.792372 l -3.892958,1.619194 q -0.72347,0.275608 -1.8259,0.930176 -1.102431,0.689019 -1.825901,0.689019 -0.826823,0.0689 -0.861274,-0.964626 0,-0.378961 0.137804,-0.999078 l 0.275608,-1.79145 0.585666,-3.513997 0.792372,-5.443251 q 1.06798,-7.889269 1.102431,-11.093208 0.0689,-2.377116 -0.999078,-2.51492 l -0.34451,-0.03445 -1.205783,0.03445 -0.206706,-0.0689 q -0.172255,-0.103353 -0.137804,-0.344509 l 0.03445,-0.34451 0.103353,-0.275607 0.378961,-0.103353 0.930175,0.103353 1.102431,0.0689 q 0.895725,0 1.136882,-0.0689 l 4.099663,-1.274686 z m -6.13227,-2.377116 q 0,-0.344509 1.515842,-2.549371 l 1.756999,-2.652723 q 0.275607,-0.378961 0.72347,-0.757921 0.757921,-0.516765 1.44694,-0.585666 1.378038,0.0689 1.378038,1.619194 -0.0689,0.826823 -0.826823,1.378039 l -0.72347,0.482313 -0.895725,0.620117 -0.930176,0.585667 -2.790527,2.101508 -0.34451,0.172255 z"
         style="font-style:normal;font-variant:normal;font-weight:normal;font-stretch:normal;font-size:70.55555725px;font-family:Marigold;-inkscape-font-specification:'Marigold, Normal';font-variant-ligatures:normal;font-variant-caps:normal;font-variant-numeric:normal;font-feature-settings:normal;text-align:start;writing-mode:lr-tb;text-anchor:start;stroke-width:0.26458332px"
         id="path3930" />
      <path
         inkscape:connector-curvature="0"
         d="m 38.895129,33.86529 q 0.37896,-0.930176 0.551215,-1.171332 0.551215,-1.171333 2.17041,-3.789606 1.963705,-3.307291 2.618273,-4.134114 2.032606,-2.687175 5.202094,-5.339898 0.516765,-0.482314 0.930176,-0.482314 l 0.310059,0.206706 q 0.0689,0.172255 0.103352,0.413411 V 19.8093 q -0.03445,0.654568 -0.241156,2.549371 L 49.264866,32.556154 48.6792,37.172582 q -0.103353,1.343587 -0.103353,2.928331 0,4.306369 2.101509,4.271919 0.826823,0.03445 1.274685,-0.241157 l 0.241157,-0.103353 0.413411,0.620117 q -0.03445,0.378961 -0.241157,0.516764 -0.241156,0.241157 -0.482313,0.241157 l -2.549371,0.447863 q -1.10243,0.172254 -2.342665,0.585666 -0.689019,0.241157 -1.033528,0.413411 -1.205784,0.620118 -1.584744,0.72347 h -0.172255 l -0.172255,-0.0689 -0.0689,-0.241156 v -0.103353 q 0,-0.310059 0.172255,-0.964627 l 0.172255,-0.689019 q 0.137804,-0.585666 0.241156,-1.343587 l 0.413412,-2.928331 0.585666,-3.651802 0.275608,-2.17041 q 0.103353,-0.895725 0.275607,-3.135037 0.275608,-3.651801 0.551216,-5.891113 0.137804,-1.446941 0.172255,-2.170411 l -0.0689,-0.37896 -0.241157,-0.241157 v 0 l -0.34451,0.241157 -0.413411,0.447862 q -0.551215,0.585667 -1.06798,1.309137 -3.031684,4.030761 -5.477702,10.886502 -0.551215,1.412489 -1.44694,4.788682 -0.585666,1.998156 -0.757921,2.893881 l -0.275607,1.378038 -0.137804,0.654568 -0.103353,0.34451 -1.06798,0.137804 q -0.344509,0.0689 -0.930176,-0.103353 l 0.03445,-0.34451 0.103353,-0.964627 0.103353,-0.861274 0.137804,-0.999077 0.344509,-3.169488 q 0.861274,-8.64719 0.930176,-9.577366 l 0.137804,-3.61735 q 0.103353,-2.928331 0.103353,-3.96186 0.0689,-1.756999 -0.792372,-1.756999 l -1.44694,-0.0689 q -0.34451,-0.03445 -0.447863,-0.137804 l -0.137803,-0.482313 q -0.03445,-0.241157 0.03445,-0.34451 l 0.137803,-0.172254 q 0.172255,-0.137804 0.792372,-0.137804 4.650879,0.03445 6.028918,-0.826823 0.310058,-0.206706 0.551215,-0.206706 l 0.344509,0.34451 -0.103352,0.37896 q -0.172255,0.378961 -0.310059,1.06798 l -0.482313,2.446018 -0.551216,3.135037 -0.482313,3.100586 -0.413412,2.962782 -0.206705,1.481391 z"
         style="font-style:normal;font-variant:normal;font-weight:normal;font-stretch:normal;font-size:70.55555725px;font-family:Marigold;-inkscape-font-specification:'Marigold, Normal';font-variant-ligatures:normal;font-variant-caps:normal;font-variant-numeric:normal;font-feature-settings:normal;text-align:start;writing-mode:lr-tb;text-anchor:start;stroke-width:0.26458332px"
         id="path3932" />
      <path
         inkscape:connector-curvature="0"
         d="m 68.764106,16.777616 0.172255,-1.929254 0.172255,-2.790527 0.37896,-4.2030165 q 0.0689,-0.9990777 0.103353,-2.2393121 l 0.0689,-1.4813911 0.03445,-0.5512153 q 0.03445,-0.5512153 -0.72347,-0.6201172 -0.689019,0 -1.722548,0.2067057 L 66.249187,3.3417433 65.250109,3.4795471 Q 64.94005,3.5829 64.733345,3.548449 L 64.423286,3.4795471 Q 64.285482,3.4450961 64.251031,3.3072923 L 64.147678,3.0316847 64.078776,2.790528 64.526639,2.4115675 q 0.206706,-0.068902 0.551215,-0.1033529 L 67.144911,2.1015089 Q 71.520183,1.5158426 73.518338,0.24115726 73.862848,0.03445153 74.207357,5.7369471e-7 L 74.414063,0.10335344 74.448514,0.37896109 Q 74.414063,0.65456873 74.31071,0.96462733 74.000652,1.8603522 73.725044,3.5829 72.932672,7.6136618 72.622613,10.197483 l -0.413411,3.169488 -1.378038,8.922798 -0.620117,5.305447 -0.999078,8.233778 q -0.206706,2.067058 -0.172255,3.824057 -0.0689,5.202094 2.446018,4.995388 l 0.792372,-0.103353 q 0.620117,-0.103353 0.999078,-0.344509 l 0.447862,-0.172255 0.34451,0.34451 0.03445,0.275607 -0.103353,0.516764 -0.172255,0.103353 q -0.310059,0.137804 -0.516764,0.137804 -1.033529,0.137804 -2.790528,0.826823 -1.756999,0.654568 -3.410644,1.171333 l -0.516765,0.137803 -0.310058,0.03445 -0.378961,-0.0689 q -0.344509,-0.103352 -0.413411,-0.37896 l -0.0689,-0.447862 q -0.03445,-1.481392 0.172254,-3.135037 l 0.206706,-1.963705 0.447863,-4.409722 0.689019,-5.133193 0.03445,-0.654568 -0.447863,0.551215 -2.756076,4.271919 q -0.792372,1.274685 -3.341743,4.616428 -4.547526,5.994466 -5.512153,6.649035 l -0.241156,0.103352 -0.241157,-0.0689 q -0.137804,-0.0689 -0.206706,-0.275607 L 54.12245,46.8533 q -0.0689,-0.344509 -0.03445,-0.930175 0.03445,-10.300836 2.13596,-16.605361 0.137803,-0.516764 0.482313,-1.240235 2.204861,-5.029839 4.616428,-7.269151 1.102431,-1.033529 2.377116,-1.688097 1.06798,-0.585666 2.652723,-1.033529 l 1.756999,-0.516764 0.585666,-0.172255 z m -0.792372,4.926487 -0.206705,-0.172255 q -0.103353,-0.0689 -0.310059,-0.137804 l -0.620117,-0.172255 q -0.861274,-0.172255 -1.963705,-0.172255 -2.721625,0 -3.755154,1.343588 -1.033528,1.309136 -1.584744,3.858507 l -0.930176,4.271918 -0.413411,2.13596 -0.172255,2.411566 q -0.103353,1.619195 -0.0689,2.308214 l 0.03445,1.343588 0.0689,1.963704 q 0,0.413412 0.103353,0.620117 l 0.275608,0.241157 0.275607,-0.172255 1.136882,-1.412489 1.998155,-2.756076 q 3.376194,-4.857585 5.098742,-9.267307 0.206705,-0.413412 0.413411,-1.378039 0.447863,-1.894802 0.585666,-3.789605 z"
         style="font-style:normal;font-variant:normal;font-weight:normal;font-stretch:normal;font-size:70.55555725px;font-family:Marigold;-inkscape-font-specification:'Marigold, Normal';font-variant-ligatures:normal;font-variant-caps:normal;font-variant-numeric:normal;font-feature-settings:normal;text-align:start;writing-mode:lr-tb;text-anchor:start;stroke-width:0.26458332px"
         id="path3934" />
      <path
         inkscape:connector-curvature="0"
         d="m 82.475586,29.111058 q 1.963704,-5.202094 6.407878,-9.405111 0.826823,-0.757921 1.550293,-0.757921 0.999077,0.0689 1.309136,1.515842 l 0.137804,1.033529 v 0.516764 q -0.03445,1.412489 -1.102431,1.688097 l -2.273763,0.551215 q -3.686252,0.964627 -5.75331,6.993544 -0.792372,2.239313 -1.10243,4.134115 -0.516764,2.721626 -1.033529,7.269152 l -0.275607,2.101508 -0.172255,1.171333 -0.0689,0.620117 -0.930176,0.137804 -0.620117,-0.03445 -0.895725,-0.103353 0.0689,-0.378961 0.241157,-1.584744 q 0.137803,-1.067979 0.206705,-2.067057 l 0.172255,-2.51492 0.482314,-6.993544 0.0689,-3.548448 0.0689,-3.410645 q 0.03445,-4.892036 -1.929253,-4.857585 l -1.240235,0.0689 q -0.516764,0.0689 -0.551215,-0.585666 0,-0.34451 0.172255,-0.551215 0.103353,-0.137804 0.413411,-0.172255 0.241157,-0.03445 0.72347,-0.03445 h 0.482314 q 1.136881,-0.03445 2.549371,-0.206706 l 0.930175,-0.137804 q 2.239312,-0.620117 2.342665,-0.620117 l 0.172255,0.0689 q 0.0689,0.137804 0.103353,0.378961 0,0.310058 -0.0689,0.930175 l -0.344509,3.307292 -0.310059,2.446018 -0.137804,2.997233 -0.0689,0.861274 z"
         style="font-style:normal;font-variant:normal;font-weight:normal;font-stretch:normal;font-size:70.55555725px;font-family:Marigold;-inkscape-font-specification:'Marigold, Normal';font-variant-ligatures:normal;font-variant-caps:normal;font-variant-numeric:normal;font-feature-settings:normal;text-align:start;writing-mode:lr-tb;text-anchor:start;stroke-width:0.26458332px"
         id="path3936" />
    </g>
  </g>
  <g
     inkscape:groupmode="layer"
     id="layer3"
     inkscape:label="Layer 2"
     style="display:inline">
    <path
       id="path3930-3"
       style="font-style:normal;font-variant:normal;font-weight:normal;font-stretch:normal;font-size:70.55555725px;line-height:6.61458302px;font-family:Marigold;-inkscape-font-specification:'Marigold, Normal';font-variant-ligatures:normal;font-variant-caps:normal;font-variant-numeric:normal;font-feature-settings:normal;text-align:start;letter-spacing:0px;word-spacing:0px;writing-mode:lr-tb;text-anchor:start;display:inline;fill:#273b94;fill-opacity:1;stroke:none;stroke-width:0.26458332px;stroke-linecap:butt;stroke-linejoin:miter;stroke-opacity:1"
       d="m 28.816693,15.263815 0.03445,0.172255 q -0.0689,0.482313 -0.206706,0.999078 -0.72347,2.239312 -1.515842,5.82221 l -0.999078,5.064291 q -0.37896,2.067057 -0.72347,4.719781 -0.310058,2.239313 -0.447862,4.099664 -0.0689,0.447863 -0.03445,0.964626 -0.03445,3.031683 1.688097,3.100586 0.585666,0.03445 1.240234,-0.344509 l 1.309137,-0.723471 0.344509,-0.103352 0.275608,0.103352 0.241156,0.413411 0.103353,0.206706 q 0,0.447863 -0.930176,0.792374 l -3.892958,1.619192 q -0.72347,0.275609 -1.8259,0.930177 -1.102431,0.68902 -1.825901,0.68902 -0.826823,0.0689 -0.861274,-0.964626 0,-0.378962 0.137804,-0.999079 l 0.275608,-1.791449 0.585666,-3.513998 0.792372,-5.443251 q 1.06798,-7.889269 1.102431,-11.093208 0.0689,-2.377115 -0.999078,-2.514919 l -0.34451,-0.03445 -1.205783,0.03445 -0.206706,-0.0689 Q 20.755169,17.296423 20.78962,17.055267 l 0.03445,-0.34451 0.103353,-0.275607 0.378961,-0.103353 0.930175,0.103353 1.102431,0.0689 q 0.895725,0 1.136882,-0.0689 l 4.099663,-1.274686 z m -6.13227,-2.377117 q 0,-0.344509 1.515842,-2.549371 l 1.756999,-2.6527225 q 0.275607,-0.378961 0.72347,-0.757921 0.757921,-0.516765 1.44694,-0.585666 1.378038,0.0689 1.378038,1.619194 -0.0689,0.826823 -0.826823,1.378039 l -0.72347,0.482313 -0.895725,0.6201165 -0.930176,0.585667 -2.790527,2.101508 -0.34451,0.172255 z"
       inkscape:connector-curvature="0"
       clip-path="url(#clipPath4046)"
       transform="translate(0.4392202,3.8840599)" />
  </g>
</svg>
